<svg width="426" height="57" viewBox="0 0 426 57" fill="none" xmlns="http://www.w3.org/2000/svg">
<path d="M57 55.6057V28.4886C56.9866 12.9988 44.6211 0.400549 29.221 0.00953688C28.9768 0.00381475 28.7308 0 28.4847 0C28.2387 0 27.9926 0.00381475 27.7485 0.00953688C12.7832 0.389105 0.684748 12.2968 0 27.1839H0.0076295C0.0076295 27.9564 0.633249 28.5801 1.40383 28.5801H12.747C13.5538 28.5801 14.2309 27.9678 14.311 27.1648C15.0225 19.9817 21.0879 14.3702 28.4657 14.3702C36.3202 14.3702 42.689 20.7313 42.689 28.5801H42.6928V29.797C42.6928 30.9433 41.5026 31.7139 40.4631 31.2295C36.8181 29.5319 32.7515 28.5839 28.4638 28.5839C13.3116 28.5839 0.926984 40.4211 0.0686655 55.3444C0.0171664 56.2447 0.741969 56.9981 1.64225 56.9981H12.7432C13.5519 56.9981 14.2309 56.3858 14.311 55.5809C15.0225 48.3977 21.0879 42.7881 28.4638 42.7881C35.8396 42.7881 41.905 48.3977 42.6165 55.5809C42.6966 56.3858 43.3737 56.9981 44.1843 56.9981H55.6133C56.3782 56.9905 56.9981 56.3687 56.9981 55.6019L57 55.6057Z" fill="black"/>
<path d="M83.075 45.6324H77L88.0608 14.2142H95.0869L106.163 45.6324H100.088L91.6966 20.6574H91.4511L83.075 45.6324ZM83.2744 33.3136H99.8426V37.8852H83.2744V33.3136Z" fill="black"/>
<path d="M136.123 14.2142V45.6324H131.061L116.257 24.2318H115.996V45.6324H110.305V14.2142H115.398L130.187 35.6301H130.463V14.2142H136.123Z" fill="black"/>
<path d="M140.158 14.2142H146.586L154.272 28.113H154.579L162.264 14.2142H168.692L157.263 33.9119V45.6324H151.587V33.9119L140.158 14.2142Z" fill="black"/>
<path d="M179.355 45.6324L170.488 14.2142H176.609L182.27 37.3022H182.562L188.606 14.2142H194.175L200.234 37.3176H200.51L206.171 14.2142H212.292L203.425 45.6324H197.81L191.521 23.5875H191.275L184.97 45.6324H179.355Z" fill="black"/>
<path d="M216.234 45.6324V14.2142H221.926V27.5147H236.484V14.2142H242.191V45.6324H236.484V32.2858H221.926V45.6324H216.234Z" fill="black"/>
<path d="M248.373 45.6324V14.2142H268.807V18.9852H254.065V27.5147H267.749V32.2858H254.065V40.8613H268.93V45.6324H248.373Z" fill="black"/>
<path d="M274.621 45.6324V14.2142H286.403C288.817 14.2142 290.844 14.6335 292.486 15.4721C294.127 16.3108 295.37 17.4843 296.213 18.9929C297.057 20.5014 297.479 22.2579 297.479 24.2625C297.479 26.2772 297.052 28.0235 296.198 29.5014C295.344 30.9792 294.089 32.1196 292.432 32.9224C290.775 33.7253 288.74 34.1267 286.326 34.1267H277.935V29.4017H285.559C286.971 29.4017 288.126 29.2048 289.026 28.811C289.926 28.4173 290.594 27.8395 291.028 27.0775C291.463 26.3156 291.68 25.3772 291.68 24.2625C291.68 23.1477 291.46 22.194 291.021 21.4014C290.581 20.6088 289.911 20.0054 289.011 19.5912C288.111 19.177 286.95 18.9699 285.528 18.9699H280.313V45.6324H274.621ZM290.852 31.396L298.63 45.6324H292.278L284.639 31.396H290.852Z" fill="black"/>
<path d="M302.727 45.6324V14.2142H323.161V18.9852H308.418V27.5147H322.102V32.2858H308.418V40.8613H323.283V45.6324H302.727Z" fill="black"/>
<path d="M343.733 45.6324H337.658L348.719 14.2142H355.745L366.821 45.6324H360.746L352.355 20.6574H352.109L343.733 45.6324ZM343.933 33.3136H360.501V37.8852H343.933V33.3136Z" fill="black"/>
<path d="M370.963 45.6324V14.2142H382.745C385.158 14.2142 387.186 14.6335 388.827 15.4721C390.469 16.3108 391.711 17.4843 392.555 18.9929C393.399 20.5014 393.821 22.2579 393.821 24.2625C393.821 26.2772 393.394 28.0235 392.54 29.5014C391.686 30.9792 390.431 32.1196 388.774 32.9224C387.117 33.7253 385.082 34.1267 382.668 34.1267H374.277V29.4017H381.901C383.312 29.4017 384.468 29.2048 385.368 28.811C386.268 28.4173 386.935 27.8395 387.37 27.0775C387.805 26.3156 388.022 25.3772 388.022 24.2625C388.022 23.1477 387.802 22.194 387.362 21.4014C386.923 20.6088 386.253 20.0054 385.353 19.5912C384.453 19.177 383.292 18.9699 381.87 18.9699H376.654V45.6324H370.963ZM387.194 31.396L394.971 45.6324H388.62L380.98 31.396H387.194Z" fill="black"/>
<path d="M425.96 24.8147H420.222C420.059 23.8738 419.757 23.0377 419.317 22.3065C418.877 21.5752 418.33 20.9539 417.676 20.4426C417.021 19.9312 416.277 19.5451 415.444 19.2843C414.61 19.0235 413.713 18.8931 412.751 18.8931C411.043 18.8931 409.53 19.3201 408.21 20.1741C406.891 21.0281 405.858 22.2758 405.112 23.9173C404.365 25.5588 403.992 27.5607 403.992 29.9232C403.992 32.3267 404.368 34.3491 405.119 35.9906C405.871 37.632 406.904 38.8696 408.218 39.7031C409.532 40.5366 411.038 40.9534 412.736 40.9534C413.677 40.9534 414.559 40.8281 415.382 40.5775C416.206 40.3269 416.947 39.9562 417.607 39.4653C418.266 38.9744 418.824 38.371 419.279 37.6551C419.734 36.9392 420.049 36.121 420.222 35.2005L425.96 35.2312C425.745 36.7244 425.282 38.1255 424.572 39.4346C423.861 40.7437 422.933 41.8968 421.787 42.894C420.642 43.8911 419.302 44.6684 417.768 45.2258C416.234 45.7832 414.531 46.0619 412.659 46.0619C409.898 46.0619 407.433 45.4227 405.265 44.1443C403.097 42.8659 401.389 41.0198 400.141 38.6062C398.893 36.1926 398.27 33.2982 398.27 29.9232C398.27 26.538 398.899 23.6411 400.156 21.2326C401.414 18.8241 403.127 16.9806 405.296 15.7022C407.464 14.4238 409.918 13.7846 412.659 13.7846C414.408 13.7846 416.034 14.0301 417.538 14.521C419.041 15.0119 420.381 15.7303 421.557 16.6764C422.733 17.6224 423.702 18.7781 424.464 20.1434C425.226 21.5088 425.725 23.0659 425.96 24.8147Z" fill="black"/>
</svg>
