<svg width="137" height="137" viewBox="0 0 137 137" fill="none" xmlns="http://www.w3.org/2000/svg">
<path d="M0.518311 64.8784V65.2414C0.518311 66.8188 1.79549 68.0923 3.36919 68.0923H30.5928C32.2725 68.0923 33.6822 66.8173 33.849 65.146C35.5817 47.6529 50.3519 33.9884 68.3176 33.9884C87.2772 33.9884 102.682 49.209 102.95 68.0923H102.963V68.5923V71.5128C102.963 74.6236 99.732 76.7237 96.9001 75.4039C88.217 71.36 78.5293 69.1014 68.313 69.1014C32.214 69.1014 2.70887 97.3027 0.663981 132.855C0.557097 134.724 2.06277 136.295 3.9414 136.295H30.5836C32.2686 136.295 33.6821 135.02 33.8489 133.345C35.5815 115.852 50.3519 102.192 68.313 102.192C86.2742 102.192 101.045 115.852 102.777 133.345M0.518311 64.8784L102.777 133.345M0.518311 64.8784C2.34018 29.5914 31.0844 1.42399 66.6086 0.52274C67.1918 0.509073 67.7781 0.5 68.3634 0.5C68.9487 0.5 69.5349 0.509073 70.1181 0.522739C106.808 1.45454 136.268 31.4694 136.3 68.373V133.443L136.295 133.445C136.295 135.008 135.032 136.278 133.47 136.295M0.518311 64.8784L133.47 136.295M102.777 133.345C102.944 135.02 104.353 136.295 106.042 136.295H133.47M102.777 133.345L133.47 136.295" stroke="white"/>
</svg>
