<svg width="137" height="137" viewBox="0 0 137 137" fill="none" xmlns="http://www.w3.org/2000/svg">
<path d="M136.8 133.454V68.3725C136.768 31.197 107.091 0.961317 70.1304 0.0228885C69.5444 0.0091554 68.9539 0 68.3634 0C67.7729 0 67.1823 0.0091554 66.5964 0.0228885C30.6798 0.933851 1.64339 29.5124 0 65.2414H0.0183108C0.0183108 67.0954 1.5198 68.5923 3.36919 68.5923H30.5928C32.5291 68.5923 34.1542 67.1228 34.3465 65.1956C36.054 47.956 50.6111 34.4884 68.3176 34.4884C87.1686 34.4884 102.454 49.755 102.454 68.5923H102.463V71.5128C102.463 74.264 99.6062 76.1134 97.1113 74.9507C88.3634 70.8765 78.6037 68.6014 68.313 68.6014C31.9478 68.6014 2.22476 97.0106 0.164797 132.827C0.0411993 134.987 1.78073 136.795 3.9414 136.795H30.5836C32.5246 136.795 34.1542 135.326 34.3465 133.394C36.054 116.155 50.6111 102.692 68.313 102.692C86.015 102.692 100.572 116.155 102.28 133.394C102.472 135.326 104.097 136.795 106.042 136.795H133.472C135.308 136.777 136.795 135.285 136.795 133.445L136.8 133.454Z" fill="white"/>
</svg>
